<svg xmlns="http://www.w3.org/2000/svg" height="24" viewBox="0 -960 960 960" width="24"><path d="M479.588-100q-158.358 0-268.973-110.85Q100-321.701 100-480.059t110.833-269.649Q321.667-861 480-861q10 0 20 .5t22 2.5q-26 33-41.5 73.5T465-701q0 99.083 70.042 168.042Q605.083-464 705-464q42.891 0 81.446-14.5Q825-493 859-521q1 9 1.5 20.207.5 11.208.5 19.793 0 158.083-111.527 269.542Q637.946-100 479.588-100ZM480-236q56 0 107.5-24t85.5-68q-4-1-9.5-2.5T654-333q-125.233-17-213.617-102.591Q352-521.182 333-654q-1-5-2-10.5t-1-8.5q-44 35-69 86t-25 107q0 101.086 71.457 172.543Q378.914-236 480-236Zm-25-219Z"/></svg>