<svg xmlns="http://www.w3.org/2000/svg" height="24" viewBox="0 -960 960 960" width="24"><path d="M234-294q53-38 115.5-58.5T480.216-373q68.216 0 132.5 22T726-293q32-44 48-89t16-98q0-127-91.5-218.5T480-790q-127 0-218.5 91.5T170-480q0 53 15.5 97.5T234-294Zm246.08-128Q414-422 368.5-466.92q-45.5-44.919-45.5-111 0-66.08 45.42-111.58 45.419-45.5 111.5-45.5 66.08 0 111.58 45.42 45.5 45.419 45.5 111.5Q637-512 591.58-467q-45.419 45-111.5 45Zm-.163 388Q388-34 306.965-68.763q-81.036-34.763-142-96Q104-226 69-307.083q-35-81.084-35-173.5Q34-572 69-653t95.965-142.237q60.964-61.237 142.083-96T480.583-926Q572-926 653-891t142 96q61 61 96 142.003 35 81.002 35 173.08 0 91.917-34.763 172.952-34.763 81.036-96 142Q734-104 652.997-69q-81.002 35-173.08 35ZM480-170q47 0 87-12t79-37q-40-26-78.5-37.5T480-268q-49 0-87 11.5T315-219q39 25 78.5 37t86.5 12Zm0-357q21 0 36-15t15-36q0-21-15-36.5T480-630q-21 0-36 15.5T429-578q0 21 15 36t36 15Zm0-51Zm1 359Z"/></svg>